<svg xmlns="http://www.w3.org/2000/svg" width="76.031" height="99.845" viewBox="0 0 76.031 99.845">
  <g id="Groupe_6731" data-name="Groupe 6731" transform="translate(0)">
    <path id="Tracé_18707" data-name="Tracé 18707" d="M331.984,84.559a25.132,25.132,0,0,0-25.1,25.1c0,7.316,6.168,18.362,11.477,26.4,3.443,5.164,6.455,9.181,8.033,11.189,4.16,5.452,4.591,5.452,5.595,5.452s1.291,0,5.882-5.595c1.435-2.008,4.591-6.025,8.033-11.189,5.308-8.033,11.477-19.079,11.477-26.252a25.664,25.664,0,0,0-25.392-25.1Zm-.143,63.55c-4.877-5.595-21.231-28.117-21.231-38.3a21.231,21.231,0,1,1,42.462.144c0,10.185-16.5,32.708-21.231,38.159Z" transform="translate(-281.345 -84.559)" fill="#8c8c8c"/>
    <path id="Tracé_18708" data-name="Tracé 18708" d="M372.245,132.16a11.046,11.046,0,1,0,11.046,11.046A10.961,10.961,0,0,0,372.245,132.16Zm0,18.219a7.173,7.173,0,1,1,7.173-7.173A7.016,7.016,0,0,1,372.245,150.379Z" transform="translate(-321.749 -119.966)" fill="#8c8c8c"/>
    <path id="Tracé_18709" data-name="Tracé 18709" d="M481.368,286.128a1.993,1.993,0,0,1-1.865-1.721c0-.143-.143-.573-.143-.861a1.808,1.808,0,0,1,1.865-1.865,1.994,1.994,0,0,1,1.865,1.721c0,.143.143.574.143.861A2,2,0,0,1,481.368,286.128Z" transform="translate(-409.641 -231.184)" fill="#8c8c8c"/>
    <path id="Tracé_18710" data-name="Tracé 18710" d="M484.521,342.7h-.287a1.821,1.821,0,0,1-1.578-2.151c0-.43.143-.861.143-1.148a2.034,2.034,0,0,1,2.152-1.721,1.925,1.925,0,0,1,1.721,2.152c0,.43-.143.86-.143,1.291a2.021,2.021,0,0,1-2.007,1.578Z" transform="translate(-412.077 -272.84)" fill="#8c8c8c"/>
    <path id="Tracé_18711" data-name="Tracé 18711" d="M485.8,312.559a1.808,1.808,0,0,1-1.865-1.865,2.8,2.8,0,0,0-.143-1.148,1.948,1.948,0,1,1,3.872-.43c0,.43.143,1,.143,1.291a2,2,0,0,1-2.007,2.152Z" transform="translate(-412.928 -250.299)" fill="#8c8c8c"/>
    <path id="Tracé_18712" data-name="Tracé 18712" d="M340.641,463.437H339.35a1.87,1.87,0,0,1,.287-3.73h1.148a1.929,1.929,0,0,1,1.865,2.008,2.151,2.151,0,0,1-2.009,1.721Z" transform="translate(-304.203 -363.593)" fill="#8c8c8c"/>
    <path id="Tracé_18713" data-name="Tracé 18713" d="M368.051,461.343a1.867,1.867,0,0,1-1.865-1.578,1.845,1.845,0,0,1,1.578-2.152c.43,0,.86-.143,1.148-.143a1.97,1.97,0,0,1,.718,3.874,5.75,5.75,0,0,1-1.578,0Z" transform="translate(-325.445 -361.928)" fill="#8c8c8c"/>
    <path id="Tracé_18714" data-name="Tracé 18714" d="M311.324,457.511h-.43l-1.291-.43a1.951,1.951,0,1,1,1.148-3.729,4.453,4.453,0,0,0,1.148.287,1.932,1.932,0,0,1,1.435,2.3,2.186,2.186,0,0,1-2.009,1.577Z" transform="translate(-282.345 -358.814)" fill="#8c8c8c"/>
    <path id="Tracé_18715" data-name="Tracé 18715" d="M396.244,453.366a2.37,2.37,0,0,1-1.865-1.148,2.012,2.012,0,0,1,1.148-2.582c.43-.143.718-.287,1.148-.43a2,2,0,1,1,1.434,3.729,2.89,2.89,0,0,0-1.148.574c-.142-.287-.429-.143-.716-.143Z" transform="translate(-346.322 -355.673)" fill="#8c8c8c"/>
    <path id="Tracé_18716" data-name="Tracé 18716" d="M283.987,447.122a1.821,1.821,0,0,1-.86-.143,8.507,8.507,0,0,1-1.148-.573,1.924,1.924,0,0,1,1.721-3.442c.43.143.718.43,1.148.573a2.137,2.137,0,0,1,1,2.582,2.456,2.456,0,0,1-1.865,1Z" transform="translate(-262.038 -351.007)" fill="#8c8c8c"/>
    <path id="Tracé_18717" data-name="Tracé 18717" d="M422.951,438.407a1.674,1.674,0,0,1-1.578-1,2.012,2.012,0,0,1,.573-2.726c.287-.287.717-.43,1-.718a1.97,1.97,0,0,1,2.153,3.3,5.038,5.038,0,0,1-1.148.717,1.3,1.3,0,0,1-1,.431Z" transform="translate(-366.286 -344.157)" fill="#8c8c8c"/>
    <path id="Tracé_18718" data-name="Tracé 18718" d="M258.847,430.81a1.629,1.629,0,0,1-1.148-.43c-.43-.287-.717-.573-1.148-.861a1.938,1.938,0,1,1,2.439-3.013c.287.287.718.573,1,.861a1.878,1.878,0,0,1,.287,2.726,1.766,1.766,0,0,1-1.435.718Z" transform="translate(-243.354 -338.568)" fill="#8c8c8c"/>
    <path id="Tracé_18719" data-name="Tracé 18719" d="M445.737,419.992a1.4,1.4,0,0,1-1.291-.573,1.76,1.76,0,0,1,0-2.726l.86-.861a1.93,1.93,0,0,1,2.869,2.583l-1,1a3.038,3.038,0,0,1-1.434.572Z" transform="translate(-383.191 -330.476)" fill="#8c8c8c"/>
    <path id="Tracé_18720" data-name="Tracé 18720" d="M238.993,409.287a1.768,1.768,0,0,1-1.435-.718c-.287-.43-.573-.717-.86-1.148a1.951,1.951,0,0,1,3.156-2.3,4.38,4.38,0,0,1,.718,1,1.878,1.878,0,0,1-.287,2.726,2.729,2.729,0,0,1-1.291.43Z" transform="translate(-228.807 -322.353)" fill="#8c8c8c"/>
    <path id="Tracé_18721" data-name="Tracé 18721" d="M464.426,397.186a3.367,3.367,0,0,1-1.148-.287,1.889,1.889,0,0,1-.573-2.726c.287-.287.43-.717.718-1a2.049,2.049,0,0,1,2.726-.718,2.011,2.011,0,0,1,.717,2.726,8.025,8.025,0,0,1-.717,1.148,3.85,3.85,0,0,1-1.722.862Z" transform="translate(-397.003 -313.408)" fill="#8c8c8c"/>
    <path id="Tracé_18722" data-name="Tracé 18722" d="M223.015,385.2a2.023,2.023,0,0,1-1.721-1.148,8.359,8.359,0,0,1-.573-1.148,1.959,1.959,0,1,1,3.586-1.577c.143.43.43.717.573,1.148a1.786,1.786,0,0,1-.86,2.582c-.431,0-.718.143-1,.143Z" transform="translate(-217.133 -304.43)" fill="#8c8c8c"/>
    <path id="Tracé_18723" data-name="Tracé 18723" d="M477.61,370.227a1.3,1.3,0,0,1-.718-.143,2.082,2.082,0,0,1-1.148-2.582c.143-.43.287-.717.43-1.148a1.906,1.906,0,1,1,3.586,1.291,9.891,9.891,0,0,1-.43,1.148,1.678,1.678,0,0,1-1.721,1.434Z" transform="translate(-406.887 -293.192)" fill="#8c8c8c"/>
    <path id="Tracé_18724" data-name="Tracé 18724" d="M213.085,357.634a1.981,1.981,0,0,1-1.865-1.435,4.193,4.193,0,0,1-.287-1.291,1.914,1.914,0,1,1,3.73-.861c.143.43.143.861.287,1.148a1.932,1.932,0,0,1-1.291,2.439Z" transform="translate(-209.928 -283.898)" fill="#8c8c8c"/>
    <path id="Tracé_18725" data-name="Tracé 18725" d="M209.064,328.284a1.808,1.808,0,0,1-1.865-1.865v-1.291a1.933,1.933,0,0,1,1.865-2.008,2.03,2.03,0,0,1,2.008,1.865v1.148a2,2,0,0,1-2.008,2.151Z" transform="translate(-207.199 -262.008)" fill="#8c8c8c"/>
    <path id="Tracé_18726" data-name="Tracé 18726" d="M210.681,299.227h-.287a1.821,1.821,0,0,1-1.578-2.151,4.164,4.164,0,0,1,.287-1.291,1.724,1.724,0,0,1,2.3-1.435,1.889,1.889,0,0,1,1.578,2.3,3.57,3.57,0,0,0-.143,1.148,2.352,2.352,0,0,1-2.152,1.434Z" transform="translate(-208.386 -240.553)" fill="#8c8c8c"/>
    <path id="Tracé_18727" data-name="Tracé 18727" d="M217.77,270.769a1.3,1.3,0,0,1-.718-.143,2.082,2.082,0,0,1-1.148-2.582,2.89,2.89,0,0,1,.573-1.148,2.148,2.148,0,0,1,2.582-1.148,2.083,2.083,0,0,1,1.148,2.582c-.143.43-.287.718-.43,1.148a2.162,2.162,0,0,1-2.007,1.291Z" transform="translate(-213.61 -219.268)" fill="#8c8c8c"/>
    <path id="Tracé_18728" data-name="Tracé 18728" d="M230.906,244.646a3.364,3.364,0,0,1-1.148-.287,1.889,1.889,0,0,1-.574-2.726c.287-.43.574-.718.861-1.148a1.951,1.951,0,0,1,3.156,2.3c-.287.287-.43.717-.717,1a1.648,1.648,0,0,1-1.578.86Z" transform="translate(-223.303 -199.888)" fill="#8c8c8c"/>
    <path id="Tracé_18729" data-name="Tracé 18729" d="M250.3,222.869a1.4,1.4,0,0,1-1.291-.573,1.76,1.76,0,0,1,0-2.726l1-1a1.93,1.93,0,1,1,2.583,2.869l-.86.861a2.322,2.322,0,0,1-1.436.574Z" transform="translate(-237.816 -183.849)" fill="#8c8c8c"/>
    <path id="Tracé_18730" data-name="Tracé 18730" d="M272.138,206.257a1.4,1.4,0,0,1-1.291-.573,1.761,1.761,0,0,1,0-2.726c.143-.143.43-.287.573-.43a1.927,1.927,0,0,1,2.726,2.726c-.143.143-.43.287-.573.43a2.559,2.559,0,0,1-1.435.573Z" transform="translate(-254.062 -171.827)" fill="#8c8c8c"/>
  </g>
</svg>
