<svg xmlns="http://www.w3.org/2000/svg" width="82.923" height="102.826" viewBox="0 0 82.923 102.826">
  <g id="Groupe_6732" data-name="Groupe 6732" transform="translate(0 0)">
    <path id="Tracé_18692" data-name="Tracé 18692" d="M182.835,113.75a16.585,16.585,0,1,0,16.585,16.585A16.6,16.6,0,0,0,182.835,113.75Zm0,29.853A13.268,13.268,0,1,1,196.1,130.335,13.283,13.283,0,0,1,182.835,143.6Z" transform="translate(-159.616 -93.848)" fill="#8c8c8c"/>
    <path id="Tracé_18693" data-name="Tracé 18693" d="M221.29,149a1.659,1.659,0,0,0-2.537,1.407v16.585a1.659,1.659,0,0,0,2.537,1.407l13.268-8.292a1.659,1.659,0,0,0,0-2.814Zm.78,15V153.4l8.48,5.3Z" transform="translate(-202.167 -122.211)" fill="#8c8c8c"/>
    <path id="Tracé_18694" data-name="Tracé 18694" d="M391,358.919a1.652,1.652,0,0,0-1.736.158l-3.98,2.985V360.4a1.66,1.66,0,0,0-1.658-1.658H367.042a1.66,1.66,0,0,0-1.658,1.658v1.658h-1.658a4.975,4.975,0,0,0,0,9.951h1.658v1.658a1.66,1.66,0,0,0,1.658,1.658H368.7V388.6h3.317V375.33h3.317V388.6h3.317V375.33h4.975a1.66,1.66,0,0,0,1.658-1.658v-1.658l3.98,2.985a1.658,1.658,0,0,0,2.654-1.327V360.4a1.66,1.66,0,0,0-.917-1.484ZM363.725,368.7a1.658,1.658,0,0,1,0-3.317h1.658V368.7Zm18.243,3.317H368.7v-9.951h13.268Zm6.634-1.658-3.317-2.488v-1.658l3.317-2.488Z" transform="translate(-315.63 -292.405)" fill="#8c8c8c"/>
    <path id="Tracé_18695" data-name="Tracé 18695" d="M212.515,8.75H132.908a1.66,1.66,0,0,0-1.658,1.658v99.509a1.66,1.66,0,0,0,1.658,1.658h79.606a1.66,1.66,0,0,0,1.658-1.658V10.408A1.66,1.66,0,0,0,212.515,8.75Zm-1.658,3.317v9.951H134.567V12.067Zm-76.289,96.192V25.335h76.289v82.924Z" transform="translate(-131.25 -8.75)" fill="#8c8c8c"/>
    <path id="Tracé_18696" data-name="Tracé 18696" d="M166.25,43.75h3.317v3.317H166.25Z" transform="translate(-159.616 -37.116)" fill="#8c8c8c"/>
    <path id="Tracé_18697" data-name="Tracé 18697" d="M201.25,43.75h3.317v3.317H201.25Z" transform="translate(-187.982 -37.116)" fill="#8c8c8c"/>
    <path id="Tracé_18698" data-name="Tracé 18698" d="M236.25,43.75h3.317v3.317H236.25Z" transform="translate(-216.348 -37.116)" fill="#8c8c8c"/>
    <path id="Tracé_18699" data-name="Tracé 18699" d="M271.25,43.75H321v3.317H271.25Z" transform="translate(-244.714 -37.116)" fill="#8c8c8c"/>
    <path id="Tracé_18700" data-name="Tracé 18700" d="M407.475,141.2a4.975,4.975,0,1,0-4.975-4.975A4.981,4.981,0,0,0,407.475,141.2Zm0-6.634a1.658,1.658,0,1,1-1.658,1.658A1.661,1.661,0,0,1,407.475,134.567Z" transform="translate(-351.087 -108.031)" fill="#8c8c8c"/>
    <path id="Tracé_18701" data-name="Tracé 18701" d="M360.418,189.475H390.27a1.658,1.658,0,0,0,1.531-2.3l-8.292-19.9a1.776,1.776,0,0,0-1.542-1.02,1.658,1.658,0,0,0-1.527,1.042l-5.581,13.954-4.74-7.582a1.723,1.723,0,0,0-2.813,0l-8.292,13.268a1.658,1.658,0,0,0,1.4,2.536ZM382.01,172.3l5.773,13.855h-9.861l-.887-1.419Zm-13.3,5.375,5.3,8.48h-10.6Z" transform="translate(-315.639 -136.403)" fill="#8c8c8c"/>
    <path id="Tracé_18702" data-name="Tracé 18702" d="M196.616,306.267c-7.091.212-12.861,6.38-12.861,13.752a18.252,18.252,0,0,0,2.486,9.193l9.35,16.029a1.657,1.657,0,0,0,2.864,0l9.35-16.029a18.26,18.26,0,0,0,2.485-9.193v-.491a13.266,13.266,0,0,0-13.674-13.261Zm10.357,13.752a14.949,14.949,0,0,1-2.033,7.521l-7.918,13.574-7.918-13.573a14.954,14.954,0,0,1-2.033-7.527,10.282,10.282,0,0,1,9.644-10.434c.1,0,.205,0,.308,0a9.953,9.953,0,0,1,9.949,9.951Z" transform="translate(-173.803 -249.87)" fill="#8c8c8c"/>
    <path id="Tracé_18703" data-name="Tracé 18703" d="M225.384,341.25a6.634,6.634,0,1,0,6.634,6.634A6.641,6.641,0,0,0,225.384,341.25Zm0,9.951a3.317,3.317,0,1,1,3.317-3.317A3.32,3.32,0,0,1,225.384,351.2Z" transform="translate(-202.165 -278.227)" fill="#8c8c8c"/>
  </g>
</svg>
