<svg xmlns="http://www.w3.org/2000/svg" width="102.825" height="102.826" viewBox="0 0 102.825 102.826">
  <g id="Groupe_6730" data-name="Groupe 6730" transform="translate(0 0.001)">
    <path id="Tracé_18704" data-name="Tracé 18704" d="M181.575,18.7V8.75h-9.951v3.317H88.7V8.75H78.75V18.7H88.7V15.384h24.261A46.507,46.507,0,0,0,83.767,56.846H80.409V66.8H90.36V56.846H87.084a43.175,43.175,0,0,1,40.662-41.392L116.787,26.413l1,6.483a31.462,31.462,0,0,0-5.864,54.613v.848H108.6v3.317h3.317v3.317H108.6v3.317h3.317v3.317H108.6v3.317h3.317v6.634h36.486v-6.634h3.317v-3.317h-3.317V98.308h3.317V94.991h-3.317V91.674h3.317V88.357h-3.317v-.848A31.462,31.462,0,0,0,142.541,32.9l1-6.483L132.579,15.454a43.175,43.175,0,0,1,40.664,41.392h-3.275V66.8h9.951V56.846h-3.358a46.506,46.506,0,0,0-29.193-41.462h24.257V18.7ZM85.384,15.384H82.067V12.067h3.317Zm1.658,48.1H83.725V60.163h3.317Zm89.558,0h-3.317V60.163H176.6ZM130.163,31.969a3.317,3.317,0,1,1-3.317,3.317A3.32,3.32,0,0,1,130.163,31.969Zm14.926,76.291H115.236v-3.317h29.853Zm0-6.634H115.236V98.308h29.853Zm0-6.634H115.236V91.674h29.853Zm13.268-33.17a28.167,28.167,0,0,1-12.533,23.441l-.734.492v2.6H131.821V85.04H128.5v3.317H115.236v-2.6l-.734-.492a28.162,28.162,0,0,1,3.8-48.985l1.633,10.617h-3.042v3.317h26.536V46.895h-3.042l1.633-10.617a28.338,28.338,0,0,1,16.335,25.545ZM137.032,46.9H123.293l-2.972-19.324,8.183-8.185v9.5a6.634,6.634,0,1,0,3.317,0v-9.5l8.184,8.184Zm37.91-34.828h3.317v3.317h-3.317Z" transform="translate(-78.75 -8.751)" fill="#8c8c8c"/>
    <path id="Tracé_18705" data-name="Tracé 18705" d="M314.542,253.75a8.293,8.293,0,0,0-1.658,16.418v10.118H316.2V270.168a8.293,8.293,0,0,0-1.658-16.418Zm0,13.268a4.975,4.975,0,1,1,4.975-4.975A4.981,4.981,0,0,1,314.542,267.018Z" transform="translate(-263.129 -207.313)" fill="#8c8c8c"/>
  </g>
</svg>
